# xmcd
#
# Track frame offsets: 
#        150
#        12398
#        22716
#        41201
#        52672
#        68776
#        89786
#        100519
#        118261
#        131153
#        148842
#        169046
#
# Disc length: 2439 seconds
#
# Revision: 0
# Processed by: cddbd v1.5.2PL0 Copyright (c) Steve Scherf et al.
# Submitted via: ExactAudioCopy v1.0b4
#
DISCID=a209850c
DTITLE=Whiskey Shivers - Rampa Head
DYEAR=2012
DGENRE=Bluegrass
TTITLE0=Way Downtown
TTITLE1=Burden
TTITLE2=D-Tune
TTITLE3=WTD
TTITLE4=Darlin'
TTITLE5=Jealous Heart
TTITLE6=Middlesboro
TTITLE7=Head Up High
TTITLE8=Swarm
TTITLE9=Long Way Home
TTITLE10=Medley
TTITLE11=Wapita Wapita
EXTD=
EXTT0=
EXTT1=
EXTT2=
EXTT3=
EXTT4=
EXTT5=
EXTT6=
EXTT7=
EXTT8=
EXTT9=
EXTT10=
EXTT11=
PLAYORDER=
